# xmcd
#
# Track frame offsets:
#	150
#	19665
#	43770
#	62470
#	90007
#	109502
#	127842
#	147845
#	175192
#	192812
#	204657
#	226622
#	261422
#	285477
#	330120
#
# Disc length: 4757 seconds
#
# Revision: 1
# Processed by: cddbd v1.5.2PL0 Copyright (c) Steve Scherf et al.
# Submitted via: audiograbber 1.83.01
#
DISCID=b712930f
DTITLE=Taxim Records - A Fourth Wave Of Bay Area Blues
DYEAR=1998
DGENRE=Blues
TTITLE0=Anthony Paul - Don't Let The Same Dog Bite You Twice
TTITLE1=Michael Barclay Blues Band - Don't Want To Touch That Woman
TTITLE2=Richie Barron - Somebody's Got To You
TTITLE3=Red Beans and Rice - The Dark Side
TTITLE4=Jonathan Kalb - Shadow Of A Man
TTITLE5=The Aces - Can't See The Light
TTITLE6=Barry Goldberg - What About Me
TTITLE7=Chuck Day Band - Parchman Farm
TTITLE8=Chris Michie - Sweet Disposition
TTITLE9=Randy Forrester - Mean Old World
TTITLE10=Soul Drivers - Don't Keep Me Waiting
TTITLE11=Terry Hanck and The Soulrockers - Walk That Walk
TTITLE12=Darby Suck - Red House
TTITLE13=Mick Martin and The Blues Rockers - Losing You
TTITLE14=Chronic with a K feat. Leigh Stephens - WeGotta Out Of This Place
EXTD=YEAR: 1998
EXTT0=
EXTT1=
EXTT2=
EXTT3=
EXTT4=
EXTT5=
EXTT6=
EXTT7=
EXTT8=
EXTT9=
EXTT10=
EXTT11=
EXTT12=
EXTT13=
EXTT14=
PLAYORDER=
